<?xml version="1.0" encoding="utf-8" standalone="no"?>
<!DOCTYPE svg PUBLIC "-//W3C//DTD SVG 1.1//EN"
  "http://www.w3.org/Graphics/SVG/1.1/DTD/svg11.dtd">
<svg xmlns:xlink="http://www.w3.org/1999/xlink" width="460.8pt" height="345.6pt" viewBox="0 0 460.8 345.6" xmlns="http://www.w3.org/2000/svg" version="1.1">
 <metadata>
  <rdf:RDF xmlns:dc="http://purl.org/dc/elements/1.1/" xmlns:cc="http://creativecommons.org/ns#" xmlns:rdf="http://www.w3.org/1999/02/22-rdf-syntax-ns#">
   <cc:Work>
    <dc:type rdf:resource="http://purl.org/dc/dcmitype/StillImage"/>
    <dc:date>2024-05-07T15:54:07.316973</dc:date>
    <dc:format>image/svg+xml</dc:format>
    <dc:creator>
     <cc:Agent>
      <dc:title>Matplotlib v3.8.3, https://matplotlib.org/</dc:title>
     </cc:Agent>
    </dc:creator>
   </cc:Work>
  </rdf:RDF>
 </metadata>
 <defs>
  <style type="text/css">*{stroke-linejoin: round; stroke-linecap: butt}</style>
 </defs>
 <g id="figure_1">
  <g id="patch_1">
   <path d="M 0 345.6 
L 460.8 345.6 
L 460.8 0 
L 0 0 
z
" style="fill: #ffffff"/>
  </g>
  <g id="axes_1">
   <g id="patch_2">
    <path d="M 57.6 307.584 
L 414.72 307.584 
L 414.72 41.472 
L 57.6 41.472 
z
" style="fill: #ffffff"/>
   </g>
   <g id="patch_3">
    <path d="M 72.760689 50.3424 
L 72.760689 121.3056 
L 113.531382 121.3056 
L 113.531382 50.3424 
L 72.760689 50.3424 
z
" clip-path="url(#pec8b21042d)" style="fill: #3274a1; stroke: #3d3d3d; stroke-width: 1.5; stroke-linejoin: miter"/>
   </g>
   <g id="patch_4">
    <path d="M 70.293099 139.0464 
L 70.293099 210.0096 
L 72.33729 210.0096 
L 72.33729 139.0464 
L 70.293099 139.0464 
z
" clip-path="url(#pec8b21042d)" style="fill: #e1812c; stroke: #3d3d3d; stroke-width: 1.5; stroke-linejoin: miter"/>
   </g>
   <g id="patch_5">
    <path d="M 70.293099 227.7504 
L 70.293099 298.7136 
L 70.293099 298.7136 
L 70.293099 227.7504 
L 70.293099 227.7504 
z
" clip-path="url(#pec8b21042d)" style="fill: #3a923a; stroke: #3d3d3d; stroke-width: 1.5; stroke-linejoin: miter"/>
   </g>
   <g id="matplotlib.axis_1">
    <g id="xtick_1">
     <g id="line2d_1">
      <defs>
       <path id="mf25fa7e9b3" d="M 0 0 
L 0 3.5 
" style="stroke: #000000; stroke-width: 0.8"/>
      </defs>
      <g>
       <use xlink:href="#mf25fa7e9b3" x="70.293099" y="307.584" style="stroke: #000000; stroke-width: 0.8"/>
      </g>
     </g>
     <g id="text_1">
      <!-- 0.0 -->
      <g transform="translate(62.341537 322.182437) scale(0.1 -0.1)">
       <defs>
        <path id="DejaVuSans-30" d="M 2034 4250 
Q 1547 4250 1301 3770 
Q 1056 3291 1056 2328 
Q 1056 1369 1301 889 
Q 1547 409 2034 409 
Q 2525 409 2770 889 
Q 3016 1369 3016 2328 
Q 3016 3291 2770 3770 
Q 2525 4250 2034 4250 
z
M 2034 4750 
Q 2819 4750 3233 4129 
Q 3647 3509 3647 2328 
Q 3647 1150 3233 529 
Q 2819 -91 2034 -91 
Q 1250 -91 836 529 
Q 422 1150 422 2328 
Q 422 3509 836 4129 
Q 1250 4750 2034 4750 
z
" transform="scale(0.015625)"/>
        <path id="DejaVuSans-2e" d="M 684 794 
L 1344 794 
L 1344 0 
L 684 0 
L 684 794 
z
" transform="scale(0.015625)"/>
       </defs>
       <use xlink:href="#DejaVuSans-30"/>
       <use xlink:href="#DejaVuSans-2e" x="63.623047"/>
       <use xlink:href="#DejaVuSans-30" x="95.410156"/>
      </g>
     </g>
    </g>
    <g id="xtick_2">
     <g id="line2d_2">
      <g>
       <use xlink:href="#mf25fa7e9b3" x="143.911518" y="307.584" style="stroke: #000000; stroke-width: 0.8"/>
      </g>
     </g>
     <g id="text_2">
      <!-- 0.5 -->
      <g transform="translate(135.959956 322.182437) scale(0.1 -0.1)">
       <defs>
        <path id="DejaVuSans-35" d="M 691 4666 
L 3169 4666 
L 3169 4134 
L 1269 4134 
L 1269 2991 
Q 1406 3038 1543 3061 
Q 1681 3084 1819 3084 
Q 2600 3084 3056 2656 
Q 3513 2228 3513 1497 
Q 3513 744 3044 326 
Q 2575 -91 1722 -91 
Q 1428 -91 1123 -41 
Q 819 9 494 109 
L 494 744 
Q 775 591 1075 516 
Q 1375 441 1709 441 
Q 2250 441 2565 725 
Q 2881 1009 2881 1497 
Q 2881 1984 2565 2268 
Q 2250 2553 1709 2553 
Q 1456 2553 1204 2497 
Q 953 2441 691 2322 
L 691 4666 
z
" transform="scale(0.015625)"/>
       </defs>
       <use xlink:href="#DejaVuSans-30"/>
       <use xlink:href="#DejaVuSans-2e" x="63.623047"/>
       <use xlink:href="#DejaVuSans-35" x="95.410156"/>
      </g>
     </g>
    </g>
    <g id="xtick_3">
     <g id="line2d_3">
      <g>
       <use xlink:href="#mf25fa7e9b3" x="217.529937" y="307.584" style="stroke: #000000; stroke-width: 0.8"/>
      </g>
     </g>
     <g id="text_3">
      <!-- 1.0 -->
      <g transform="translate(209.578374 322.182437) scale(0.1 -0.1)">
       <defs>
        <path id="DejaVuSans-31" d="M 794 531 
L 1825 531 
L 1825 4091 
L 703 3866 
L 703 4441 
L 1819 4666 
L 2450 4666 
L 2450 531 
L 3481 531 
L 3481 0 
L 794 0 
L 794 531 
z
" transform="scale(0.015625)"/>
       </defs>
       <use xlink:href="#DejaVuSans-31"/>
       <use xlink:href="#DejaVuSans-2e" x="63.623047"/>
       <use xlink:href="#DejaVuSans-30" x="95.410156"/>
      </g>
     </g>
    </g>
    <g id="xtick_4">
     <g id="line2d_4">
      <g>
       <use xlink:href="#mf25fa7e9b3" x="291.148356" y="307.584" style="stroke: #000000; stroke-width: 0.8"/>
      </g>
     </g>
     <g id="text_4">
      <!-- 1.5 -->
      <g transform="translate(283.196793 322.182437) scale(0.1 -0.1)">
       <use xlink:href="#DejaVuSans-31"/>
       <use xlink:href="#DejaVuSans-2e" x="63.623047"/>
       <use xlink:href="#DejaVuSans-35" x="95.410156"/>
      </g>
     </g>
    </g>
    <g id="xtick_5">
     <g id="line2d_5">
      <g>
       <use xlink:href="#mf25fa7e9b3" x="364.766775" y="307.584" style="stroke: #000000; stroke-width: 0.8"/>
      </g>
     </g>
     <g id="text_5">
      <!-- 2.0 -->
      <g transform="translate(356.815212 322.182437) scale(0.1 -0.1)">
       <defs>
        <path id="DejaVuSans-32" d="M 1228 531 
L 3431 531 
L 3431 0 
L 469 0 
L 469 531 
Q 828 903 1448 1529 
Q 2069 2156 2228 2338 
Q 2531 2678 2651 2914 
Q 2772 3150 2772 3378 
Q 2772 3750 2511 3984 
Q 2250 4219 1831 4219 
Q 1534 4219 1204 4116 
Q 875 4013 500 3803 
L 500 4441 
Q 881 4594 1212 4672 
Q 1544 4750 1819 4750 
Q 2544 4750 2975 4387 
Q 3406 4025 3406 3419 
Q 3406 3131 3298 2873 
Q 3191 2616 2906 2266 
Q 2828 2175 2409 1742 
Q 1991 1309 1228 531 
z
" transform="scale(0.015625)"/>
       </defs>
       <use xlink:href="#DejaVuSans-32"/>
       <use xlink:href="#DejaVuSans-2e" x="63.623047"/>
       <use xlink:href="#DejaVuSans-30" x="95.410156"/>
      </g>
     </g>
    </g>
    <g id="text_6">
     <!-- total_peak_flo -->
     <g transform="translate(201.308437 335.860562) scale(0.1 -0.1)">
      <defs>
       <path id="DejaVuSans-74" d="M 1172 4494 
L 1172 3500 
L 2356 3500 
L 2356 3053 
L 1172 3053 
L 1172 1153 
Q 1172 725 1289 603 
Q 1406 481 1766 481 
L 2356 481 
L 2356 0 
L 1766 0 
Q 1100 0 847 248 
Q 594 497 594 1153 
L 594 3053 
L 172 3053 
L 172 3500 
L 594 3500 
L 594 4494 
L 1172 4494 
z
" transform="scale(0.015625)"/>
       <path id="DejaVuSans-6f" d="M 1959 3097 
Q 1497 3097 1228 2736 
Q 959 2375 959 1747 
Q 959 1119 1226 758 
Q 1494 397 1959 397 
Q 2419 397 2687 759 
Q 2956 1122 2956 1747 
Q 2956 2369 2687 2733 
Q 2419 3097 1959 3097 
z
M 1959 3584 
Q 2709 3584 3137 3096 
Q 3566 2609 3566 1747 
Q 3566 888 3137 398 
Q 2709 -91 1959 -91 
Q 1206 -91 779 398 
Q 353 888 353 1747 
Q 353 2609 779 3096 
Q 1206 3584 1959 3584 
z
" transform="scale(0.015625)"/>
       <path id="DejaVuSans-61" d="M 2194 1759 
Q 1497 1759 1228 1600 
Q 959 1441 959 1056 
Q 959 750 1161 570 
Q 1363 391 1709 391 
Q 2188 391 2477 730 
Q 2766 1069 2766 1631 
L 2766 1759 
L 2194 1759 
z
M 3341 1997 
L 3341 0 
L 2766 0 
L 2766 531 
Q 2569 213 2275 61 
Q 1981 -91 1556 -91 
Q 1019 -91 701 211 
Q 384 513 384 1019 
Q 384 1609 779 1909 
Q 1175 2209 1959 2209 
L 2766 2209 
L 2766 2266 
Q 2766 2663 2505 2880 
Q 2244 3097 1772 3097 
Q 1472 3097 1187 3025 
Q 903 2953 641 2809 
L 641 3341 
Q 956 3463 1253 3523 
Q 1550 3584 1831 3584 
Q 2591 3584 2966 3190 
Q 3341 2797 3341 1997 
z
" transform="scale(0.015625)"/>
       <path id="DejaVuSans-6c" d="M 603 4863 
L 1178 4863 
L 1178 0 
L 603 0 
L 603 4863 
z
" transform="scale(0.015625)"/>
       <path id="DejaVuSans-5f" d="M 3263 -1063 
L 3263 -1509 
L -63 -1509 
L -63 -1063 
L 3263 -1063 
z
" transform="scale(0.015625)"/>
       <path id="DejaVuSans-70" d="M 1159 525 
L 1159 -1331 
L 581 -1331 
L 581 3500 
L 1159 3500 
L 1159 2969 
Q 1341 3281 1617 3432 
Q 1894 3584 2278 3584 
Q 2916 3584 3314 3078 
Q 3713 2572 3713 1747 
Q 3713 922 3314 415 
Q 2916 -91 2278 -91 
Q 1894 -91 1617 61 
Q 1341 213 1159 525 
z
M 3116 1747 
Q 3116 2381 2855 2742 
Q 2594 3103 2138 3103 
Q 1681 3103 1420 2742 
Q 1159 2381 1159 1747 
Q 1159 1113 1420 752 
Q 1681 391 2138 391 
Q 2594 391 2855 752 
Q 3116 1113 3116 1747 
z
" transform="scale(0.015625)"/>
       <path id="DejaVuSans-65" d="M 3597 1894 
L 3597 1613 
L 953 1613 
Q 991 1019 1311 708 
Q 1631 397 2203 397 
Q 2534 397 2845 478 
Q 3156 559 3463 722 
L 3463 178 
Q 3153 47 2828 -22 
Q 2503 -91 2169 -91 
Q 1331 -91 842 396 
Q 353 884 353 1716 
Q 353 2575 817 3079 
Q 1281 3584 2069 3584 
Q 2775 3584 3186 3129 
Q 3597 2675 3597 1894 
z
M 3022 2063 
Q 3016 2534 2758 2815 
Q 2500 3097 2075 3097 
Q 1594 3097 1305 2825 
Q 1016 2553 972 2059 
L 3022 2063 
z
" transform="scale(0.015625)"/>
       <path id="DejaVuSans-6b" d="M 581 4863 
L 1159 4863 
L 1159 1991 
L 2875 3500 
L 3609 3500 
L 1753 1863 
L 3688 0 
L 2938 0 
L 1159 1709 
L 1159 0 
L 581 0 
L 581 4863 
z
" transform="scale(0.015625)"/>
       <path id="DejaVuSans-66" d="M 2375 4863 
L 2375 4384 
L 1825 4384 
Q 1516 4384 1395 4259 
Q 1275 4134 1275 3809 
L 1275 3500 
L 2222 3500 
L 2222 3053 
L 1275 3053 
L 1275 0 
L 697 0 
L 697 3053 
L 147 3053 
L 147 3500 
L 697 3500 
L 697 3744 
Q 697 4328 969 4595 
Q 1241 4863 1831 4863 
L 2375 4863 
z
" transform="scale(0.015625)"/>
      </defs>
      <use xlink:href="#DejaVuSans-74"/>
      <use xlink:href="#DejaVuSans-6f" x="39.208984"/>
      <use xlink:href="#DejaVuSans-74" x="100.390625"/>
      <use xlink:href="#DejaVuSans-61" x="139.599609"/>
      <use xlink:href="#DejaVuSans-6c" x="200.878906"/>
      <use xlink:href="#DejaVuSans-5f" x="228.662109"/>
      <use xlink:href="#DejaVuSans-70" x="278.662109"/>
      <use xlink:href="#DejaVuSans-65" x="342.138672"/>
      <use xlink:href="#DejaVuSans-61" x="403.662109"/>
      <use xlink:href="#DejaVuSans-6b" x="464.941406"/>
      <use xlink:href="#DejaVuSans-5f" x="522.851562"/>
      <use xlink:href="#DejaVuSans-66" x="572.851562"/>
      <use xlink:href="#DejaVuSans-6c" x="608.056641"/>
      <use xlink:href="#DejaVuSans-6f" x="635.839844"/>
     </g>
    </g>
    <g id="text_7">
     <!-- 1e6 -->
     <g transform="translate(395.841875 334.860562) scale(0.1 -0.1)">
      <defs>
       <path id="DejaVuSans-36" d="M 2113 2584 
Q 1688 2584 1439 2293 
Q 1191 2003 1191 1497 
Q 1191 994 1439 701 
Q 1688 409 2113 409 
Q 2538 409 2786 701 
Q 3034 994 3034 1497 
Q 3034 2003 2786 2293 
Q 2538 2584 2113 2584 
z
M 3366 4563 
L 3366 3988 
Q 3128 4100 2886 4159 
Q 2644 4219 2406 4219 
Q 1781 4219 1451 3797 
Q 1122 3375 1075 2522 
Q 1259 2794 1537 2939 
Q 1816 3084 2150 3084 
Q 2853 3084 3261 2657 
Q 3669 2231 3669 1497 
Q 3669 778 3244 343 
Q 2819 -91 2113 -91 
Q 1303 -91 875 529 
Q 447 1150 447 2328 
Q 447 3434 972 4092 
Q 1497 4750 2381 4750 
Q 2619 4750 2861 4703 
Q 3103 4656 3366 4563 
z
" transform="scale(0.015625)"/>
      </defs>
      <use xlink:href="#DejaVuSans-31"/>
      <use xlink:href="#DejaVuSans-65" x="63.623047"/>
      <use xlink:href="#DejaVuSans-36" x="125.146484"/>
     </g>
    </g>
   </g>
   <g id="matplotlib.axis_2">
    <g id="ytick_1">
     <g id="line2d_6">
      <defs>
       <path id="mce4c80c3cb" d="M 0 0 
L -3.5 0 
" style="stroke: #000000; stroke-width: 0.8"/>
      </defs>
      <g>
       <use xlink:href="#mce4c80c3cb" x="57.6" y="85.824" style="stroke: #000000; stroke-width: 0.8"/>
      </g>
     </g>
     <g id="text_8">
      <!-- JUb66(RFP) -->
      <g transform="translate(-5.275 89.623219) scale(0.1 -0.1)">
       <defs>
        <path id="DejaVuSans-4a" d="M 628 4666 
L 1259 4666 
L 1259 325 
Q 1259 -519 939 -900 
Q 619 -1281 -91 -1281 
L -331 -1281 
L -331 -750 
L -134 -750 
Q 284 -750 456 -515 
Q 628 -281 628 325 
L 628 4666 
z
" transform="scale(0.015625)"/>
        <path id="DejaVuSans-55" d="M 556 4666 
L 1191 4666 
L 1191 1831 
Q 1191 1081 1462 751 
Q 1734 422 2344 422 
Q 2950 422 3222 751 
Q 3494 1081 3494 1831 
L 3494 4666 
L 4128 4666 
L 4128 1753 
Q 4128 841 3676 375 
Q 3225 -91 2344 -91 
Q 1459 -91 1007 375 
Q 556 841 556 1753 
L 556 4666 
z
" transform="scale(0.015625)"/>
        <path id="DejaVuSans-62" d="M 3116 1747 
Q 3116 2381 2855 2742 
Q 2594 3103 2138 3103 
Q 1681 3103 1420 2742 
Q 1159 2381 1159 1747 
Q 1159 1113 1420 752 
Q 1681 391 2138 391 
Q 2594 391 2855 752 
Q 3116 1113 3116 1747 
z
M 1159 2969 
Q 1341 3281 1617 3432 
Q 1894 3584 2278 3584 
Q 2916 3584 3314 3078 
Q 3713 2572 3713 1747 
Q 3713 922 3314 415 
Q 2916 -91 2278 -91 
Q 1894 -91 1617 61 
Q 1341 213 1159 525 
L 1159 0 
L 581 0 
L 581 4863 
L 1159 4863 
L 1159 2969 
z
" transform="scale(0.015625)"/>
        <path id="DejaVuSans-28" d="M 1984 4856 
Q 1566 4138 1362 3434 
Q 1159 2731 1159 2009 
Q 1159 1288 1364 580 
Q 1569 -128 1984 -844 
L 1484 -844 
Q 1016 -109 783 600 
Q 550 1309 550 2009 
Q 550 2706 781 3412 
Q 1013 4119 1484 4856 
L 1984 4856 
z
" transform="scale(0.015625)"/>
        <path id="DejaVuSans-52" d="M 2841 2188 
Q 3044 2119 3236 1894 
Q 3428 1669 3622 1275 
L 4263 0 
L 3584 0 
L 2988 1197 
Q 2756 1666 2539 1819 
Q 2322 1972 1947 1972 
L 1259 1972 
L 1259 0 
L 628 0 
L 628 4666 
L 2053 4666 
Q 2853 4666 3247 4331 
Q 3641 3997 3641 3322 
Q 3641 2881 3436 2590 
Q 3231 2300 2841 2188 
z
M 1259 4147 
L 1259 2491 
L 2053 2491 
Q 2509 2491 2742 2702 
Q 2975 2913 2975 3322 
Q 2975 3731 2742 3939 
Q 2509 4147 2053 4147 
L 1259 4147 
z
" transform="scale(0.015625)"/>
        <path id="DejaVuSans-46" d="M 628 4666 
L 3309 4666 
L 3309 4134 
L 1259 4134 
L 1259 2759 
L 3109 2759 
L 3109 2228 
L 1259 2228 
L 1259 0 
L 628 0 
L 628 4666 
z
" transform="scale(0.015625)"/>
        <path id="DejaVuSans-50" d="M 1259 4147 
L 1259 2394 
L 2053 2394 
Q 2494 2394 2734 2622 
Q 2975 2850 2975 3272 
Q 2975 3691 2734 3919 
Q 2494 4147 2053 4147 
L 1259 4147 
z
M 628 4666 
L 2053 4666 
Q 2838 4666 3239 4311 
Q 3641 3956 3641 3272 
Q 3641 2581 3239 2228 
Q 2838 1875 2053 1875 
L 1259 1875 
L 1259 0 
L 628 0 
L 628 4666 
z
" transform="scale(0.015625)"/>
        <path id="DejaVuSans-29" d="M 513 4856 
L 1013 4856 
Q 1481 4119 1714 3412 
Q 1947 2706 1947 2009 
Q 1947 1309 1714 600 
Q 1481 -109 1013 -844 
L 513 -844 
Q 928 -128 1133 580 
Q 1338 1288 1338 2009 
Q 1338 2731 1133 3434 
Q 928 4138 513 4856 
z
" transform="scale(0.015625)"/>
       </defs>
       <use xlink:href="#DejaVuSans-4a"/>
       <use xlink:href="#DejaVuSans-55" x="29.492188"/>
       <use xlink:href="#DejaVuSans-62" x="102.685547"/>
       <use xlink:href="#DejaVuSans-36" x="166.162109"/>
       <use xlink:href="#DejaVuSans-36" x="229.785156"/>
       <use xlink:href="#DejaVuSans-28" x="293.408203"/>
       <use xlink:href="#DejaVuSans-52" x="332.421875"/>
       <use xlink:href="#DejaVuSans-46" x="401.904297"/>
       <use xlink:href="#DejaVuSans-50" x="459.423828"/>
       <use xlink:href="#DejaVuSans-29" x="519.726562"/>
      </g>
     </g>
    </g>
    <g id="ytick_2">
     <g id="line2d_7">
      <g>
       <use xlink:href="#mce4c80c3cb" x="57.6" y="174.528" style="stroke: #000000; stroke-width: 0.8"/>
      </g>
     </g>
     <g id="text_9">
      <!-- JUb66(RFP) swapped onto PA01(GFP) -->
      <g transform="translate(-134.309375 178.327219) scale(0.1 -0.1)">
       <defs>
        <path id="DejaVuSans-20" transform="scale(0.015625)"/>
        <path id="DejaVuSans-73" d="M 2834 3397 
L 2834 2853 
Q 2591 2978 2328 3040 
Q 2066 3103 1784 3103 
Q 1356 3103 1142 2972 
Q 928 2841 928 2578 
Q 928 2378 1081 2264 
Q 1234 2150 1697 2047 
L 1894 2003 
Q 2506 1872 2764 1633 
Q 3022 1394 3022 966 
Q 3022 478 2636 193 
Q 2250 -91 1575 -91 
Q 1294 -91 989 -36 
Q 684 19 347 128 
L 347 722 
Q 666 556 975 473 
Q 1284 391 1588 391 
Q 1994 391 2212 530 
Q 2431 669 2431 922 
Q 2431 1156 2273 1281 
Q 2116 1406 1581 1522 
L 1381 1569 
Q 847 1681 609 1914 
Q 372 2147 372 2553 
Q 372 3047 722 3315 
Q 1072 3584 1716 3584 
Q 2034 3584 2315 3537 
Q 2597 3491 2834 3397 
z
" transform="scale(0.015625)"/>
        <path id="DejaVuSans-77" d="M 269 3500 
L 844 3500 
L 1563 769 
L 2278 3500 
L 2956 3500 
L 3675 769 
L 4391 3500 
L 4966 3500 
L 4050 0 
L 3372 0 
L 2619 2869 
L 1863 0 
L 1184 0 
L 269 3500 
z
" transform="scale(0.015625)"/>
        <path id="DejaVuSans-64" d="M 2906 2969 
L 2906 4863 
L 3481 4863 
L 3481 0 
L 2906 0 
L 2906 525 
Q 2725 213 2448 61 
Q 2172 -91 1784 -91 
Q 1150 -91 751 415 
Q 353 922 353 1747 
Q 353 2572 751 3078 
Q 1150 3584 1784 3584 
Q 2172 3584 2448 3432 
Q 2725 3281 2906 2969 
z
M 947 1747 
Q 947 1113 1208 752 
Q 1469 391 1925 391 
Q 2381 391 2643 752 
Q 2906 1113 2906 1747 
Q 2906 2381 2643 2742 
Q 2381 3103 1925 3103 
Q 1469 3103 1208 2742 
Q 947 2381 947 1747 
z
" transform="scale(0.015625)"/>
        <path id="DejaVuSans-6e" d="M 3513 2113 
L 3513 0 
L 2938 0 
L 2938 2094 
Q 2938 2591 2744 2837 
Q 2550 3084 2163 3084 
Q 1697 3084 1428 2787 
Q 1159 2491 1159 1978 
L 1159 0 
L 581 0 
L 581 3500 
L 1159 3500 
L 1159 2956 
Q 1366 3272 1645 3428 
Q 1925 3584 2291 3584 
Q 2894 3584 3203 3211 
Q 3513 2838 3513 2113 
z
" transform="scale(0.015625)"/>
        <path id="DejaVuSans-41" d="M 2188 4044 
L 1331 1722 
L 3047 1722 
L 2188 4044 
z
M 1831 4666 
L 2547 4666 
L 4325 0 
L 3669 0 
L 3244 1197 
L 1141 1197 
L 716 0 
L 50 0 
L 1831 4666 
z
" transform="scale(0.015625)"/>
        <path id="DejaVuSans-47" d="M 3809 666 
L 3809 1919 
L 2778 1919 
L 2778 2438 
L 4434 2438 
L 4434 434 
Q 4069 175 3628 42 
Q 3188 -91 2688 -91 
Q 1594 -91 976 548 
Q 359 1188 359 2328 
Q 359 3472 976 4111 
Q 1594 4750 2688 4750 
Q 3144 4750 3555 4637 
Q 3966 4525 4313 4306 
L 4313 3634 
Q 3963 3931 3569 4081 
Q 3175 4231 2741 4231 
Q 1884 4231 1454 3753 
Q 1025 3275 1025 2328 
Q 1025 1384 1454 906 
Q 1884 428 2741 428 
Q 3075 428 3337 486 
Q 3600 544 3809 666 
z
" transform="scale(0.015625)"/>
       </defs>
       <use xlink:href="#DejaVuSans-4a"/>
       <use xlink:href="#DejaVuSans-55" x="29.492188"/>
       <use xlink:href="#DejaVuSans-62" x="102.685547"/>
       <use xlink:href="#DejaVuSans-36" x="166.162109"/>
       <use xlink:href="#DejaVuSans-36" x="229.785156"/>
       <use xlink:href="#DejaVuSans-28" x="293.408203"/>
       <use xlink:href="#DejaVuSans-52" x="332.421875"/>
       <use xlink:href="#DejaVuSans-46" x="401.904297"/>
       <use xlink:href="#DejaVuSans-50" x="459.423828"/>
       <use xlink:href="#DejaVuSans-29" x="519.726562"/>
       <use xlink:href="#DejaVuSans-20" x="558.740234"/>
       <use xlink:href="#DejaVuSans-73" x="590.527344"/>
       <use xlink:href="#DejaVuSans-77" x="642.626953"/>
       <use xlink:href="#DejaVuSans-61" x="724.414062"/>
       <use xlink:href="#DejaVuSans-70" x="785.693359"/>
       <use xlink:href="#DejaVuSans-70" x="849.169922"/>
       <use xlink:href="#DejaVuSans-65" x="912.646484"/>
       <use xlink:href="#DejaVuSans-64" x="974.169922"/>
       <use xlink:href="#DejaVuSans-20" x="1037.646484"/>
       <use xlink:href="#DejaVuSans-6f" x="1069.433594"/>
       <use xlink:href="#DejaVuSans-6e" x="1130.615234"/>
       <use xlink:href="#DejaVuSans-74" x="1193.994141"/>
       <use xlink:href="#DejaVuSans-6f" x="1233.203125"/>
       <use xlink:href="#DejaVuSans-20" x="1294.384766"/>
       <use xlink:href="#DejaVuSans-50" x="1326.171875"/>
       <use xlink:href="#DejaVuSans-41" x="1380.099609"/>
       <use xlink:href="#DejaVuSans-30" x="1448.507812"/>
       <use xlink:href="#DejaVuSans-31" x="1512.130859"/>
       <use xlink:href="#DejaVuSans-28" x="1575.753906"/>
       <use xlink:href="#DejaVuSans-47" x="1614.767578"/>
       <use xlink:href="#DejaVuSans-46" x="1692.257812"/>
       <use xlink:href="#DejaVuSans-50" x="1749.777344"/>
       <use xlink:href="#DejaVuSans-29" x="1810.080078"/>
      </g>
     </g>
    </g>
    <g id="ytick_3">
     <g id="line2d_8">
      <g>
       <use xlink:href="#mce4c80c3cb" x="57.6" y="263.232" style="stroke: #000000; stroke-width: 0.8"/>
      </g>
     </g>
     <g id="text_10">
      <!-- JUb66(RFP) swapped onto OP50(GFP) -->
      <g transform="translate(-135.978125 267.031219) scale(0.1 -0.1)">
       <defs>
        <path id="DejaVuSans-4f" d="M 2522 4238 
Q 1834 4238 1429 3725 
Q 1025 3213 1025 2328 
Q 1025 1447 1429 934 
Q 1834 422 2522 422 
Q 3209 422 3611 934 
Q 4013 1447 4013 2328 
Q 4013 3213 3611 3725 
Q 3209 4238 2522 4238 
z
M 2522 4750 
Q 3503 4750 4090 4092 
Q 4678 3434 4678 2328 
Q 4678 1225 4090 567 
Q 3503 -91 2522 -91 
Q 1538 -91 948 565 
Q 359 1222 359 2328 
Q 359 3434 948 4092 
Q 1538 4750 2522 4750 
z
" transform="scale(0.015625)"/>
       </defs>
       <use xlink:href="#DejaVuSans-4a"/>
       <use xlink:href="#DejaVuSans-55" x="29.492188"/>
       <use xlink:href="#DejaVuSans-62" x="102.685547"/>
       <use xlink:href="#DejaVuSans-36" x="166.162109"/>
       <use xlink:href="#DejaVuSans-36" x="229.785156"/>
       <use xlink:href="#DejaVuSans-28" x="293.408203"/>
       <use xlink:href="#DejaVuSans-52" x="332.421875"/>
       <use xlink:href="#DejaVuSans-46" x="401.904297"/>
       <use xlink:href="#DejaVuSans-50" x="459.423828"/>
       <use xlink:href="#DejaVuSans-29" x="519.726562"/>
       <use xlink:href="#DejaVuSans-20" x="558.740234"/>
       <use xlink:href="#DejaVuSans-73" x="590.527344"/>
       <use xlink:href="#DejaVuSans-77" x="642.626953"/>
       <use xlink:href="#DejaVuSans-61" x="724.414062"/>
       <use xlink:href="#DejaVuSans-70" x="785.693359"/>
       <use xlink:href="#DejaVuSans-70" x="849.169922"/>
       <use xlink:href="#DejaVuSans-65" x="912.646484"/>
       <use xlink:href="#DejaVuSans-64" x="974.169922"/>
       <use xlink:href="#DejaVuSans-20" x="1037.646484"/>
       <use xlink:href="#DejaVuSans-6f" x="1069.433594"/>
       <use xlink:href="#DejaVuSans-6e" x="1130.615234"/>
       <use xlink:href="#DejaVuSans-74" x="1193.994141"/>
       <use xlink:href="#DejaVuSans-6f" x="1233.203125"/>
       <use xlink:href="#DejaVuSans-20" x="1294.384766"/>
       <use xlink:href="#DejaVuSans-4f" x="1326.171875"/>
       <use xlink:href="#DejaVuSans-50" x="1404.882812"/>
       <use xlink:href="#DejaVuSans-35" x="1465.185547"/>
       <use xlink:href="#DejaVuSans-30" x="1528.808594"/>
       <use xlink:href="#DejaVuSans-28" x="1592.431641"/>
       <use xlink:href="#DejaVuSans-47" x="1631.445312"/>
       <use xlink:href="#DejaVuSans-46" x="1708.935547"/>
       <use xlink:href="#DejaVuSans-50" x="1766.455078"/>
       <use xlink:href="#DejaVuSans-29" x="1826.757812"/>
      </g>
     </g>
    </g>
    <g id="text_11">
     <!-- diet_and_channel -->
     <g transform="translate(-142.335938 218.320188) rotate(-90) scale(0.1 -0.1)">
      <defs>
       <path id="DejaVuSans-69" d="M 603 3500 
L 1178 3500 
L 1178 0 
L 603 0 
L 603 3500 
z
M 603 4863 
L 1178 4863 
L 1178 4134 
L 603 4134 
L 603 4863 
z
" transform="scale(0.015625)"/>
       <path id="DejaVuSans-63" d="M 3122 3366 
L 3122 2828 
Q 2878 2963 2633 3030 
Q 2388 3097 2138 3097 
Q 1578 3097 1268 2742 
Q 959 2388 959 1747 
Q 959 1106 1268 751 
Q 1578 397 2138 397 
Q 2388 397 2633 464 
Q 2878 531 3122 666 
L 3122 134 
Q 2881 22 2623 -34 
Q 2366 -91 2075 -91 
Q 1284 -91 818 406 
Q 353 903 353 1747 
Q 353 2603 823 3093 
Q 1294 3584 2113 3584 
Q 2378 3584 2631 3529 
Q 2884 3475 3122 3366 
z
" transform="scale(0.015625)"/>
       <path id="DejaVuSans-68" d="M 3513 2113 
L 3513 0 
L 2938 0 
L 2938 2094 
Q 2938 2591 2744 2837 
Q 2550 3084 2163 3084 
Q 1697 3084 1428 2787 
Q 1159 2491 1159 1978 
L 1159 0 
L 581 0 
L 581 4863 
L 1159 4863 
L 1159 2956 
Q 1366 3272 1645 3428 
Q 1925 3584 2291 3584 
Q 2894 3584 3203 3211 
Q 3513 2838 3513 2113 
z
" transform="scale(0.015625)"/>
      </defs>
      <use xlink:href="#DejaVuSans-64"/>
      <use xlink:href="#DejaVuSans-69" x="63.476562"/>
      <use xlink:href="#DejaVuSans-65" x="91.259766"/>
      <use xlink:href="#DejaVuSans-74" x="152.783203"/>
      <use xlink:href="#DejaVuSans-5f" x="191.992188"/>
      <use xlink:href="#DejaVuSans-61" x="241.992188"/>
      <use xlink:href="#DejaVuSans-6e" x="303.271484"/>
      <use xlink:href="#DejaVuSans-64" x="366.650391"/>
      <use xlink:href="#DejaVuSans-5f" x="430.126953"/>
      <use xlink:href="#DejaVuSans-63" x="480.126953"/>
      <use xlink:href="#DejaVuSans-68" x="535.107422"/>
      <use xlink:href="#DejaVuSans-61" x="598.486328"/>
      <use xlink:href="#DejaVuSans-6e" x="659.765625"/>
      <use xlink:href="#DejaVuSans-6e" x="723.144531"/>
      <use xlink:href="#DejaVuSans-65" x="786.523438"/>
      <use xlink:href="#DejaVuSans-6c" x="848.046875"/>
     </g>
    </g>
   </g>
   <g id="line2d_9">
    <path d="M 72.760689 85.824 
L 70.293099 85.824 
" clip-path="url(#pec8b21042d)" style="fill: none; stroke: #3d3d3d; stroke-width: 1.5; stroke-linecap: square"/>
   </g>
   <g id="line2d_10">
    <path d="M 113.531382 85.824 
L 162.399248 85.824 
" clip-path="url(#pec8b21042d)" style="fill: none; stroke: #3d3d3d; stroke-width: 1.5; stroke-linecap: square"/>
   </g>
   <g id="line2d_11">
    <path d="M 70.293099 68.0832 
L 70.293099 103.5648 
" clip-path="url(#pec8b21042d)" style="fill: none; stroke: #3d3d3d; stroke-width: 1.5; stroke-linecap: square"/>
   </g>
   <g id="line2d_12">
    <path d="M 162.399248 68.0832 
L 162.399248 103.5648 
" clip-path="url(#pec8b21042d)" style="fill: none; stroke: #3d3d3d; stroke-width: 1.5; stroke-linecap: square"/>
   </g>
   <g id="line2d_13">
    <path d="M 70.293099 174.528 
L 70.293099 174.528 
" clip-path="url(#pec8b21042d)" style="fill: none; stroke: #3d3d3d; stroke-width: 1.5; stroke-linecap: square"/>
   </g>
   <g id="line2d_14">
    <path d="M 72.33729 174.528 
L 74.74306 174.528 
" clip-path="url(#pec8b21042d)" style="fill: none; stroke: #3d3d3d; stroke-width: 1.5; stroke-linecap: square"/>
   </g>
   <g id="line2d_15">
    <path d="M 70.293099 156.7872 
L 70.293099 192.2688 
" clip-path="url(#pec8b21042d)" style="fill: none; stroke: #3d3d3d; stroke-width: 1.5; stroke-linecap: square"/>
   </g>
   <g id="line2d_16">
    <path d="M 74.74306 156.7872 
L 74.74306 192.2688 
" clip-path="url(#pec8b21042d)" style="fill: none; stroke: #3d3d3d; stroke-width: 1.5; stroke-linecap: square"/>
   </g>
   <g id="line2d_17">
    <path d="M 70.293099 263.232 
L 70.293099 263.232 
" clip-path="url(#pec8b21042d)" style="fill: none; stroke: #3d3d3d; stroke-width: 1.5; stroke-linecap: square"/>
   </g>
   <g id="line2d_18">
    <path d="M 70.293099 263.232 
L 70.293099 263.232 
" clip-path="url(#pec8b21042d)" style="fill: none; stroke: #3d3d3d; stroke-width: 1.5; stroke-linecap: square"/>
   </g>
   <g id="line2d_19">
    <path d="M 70.293099 245.4912 
L 70.293099 280.9728 
" clip-path="url(#pec8b21042d)" style="fill: none; stroke: #3d3d3d; stroke-width: 1.5; stroke-linecap: square"/>
   </g>
   <g id="line2d_20">
    <path d="M 70.293099 245.4912 
L 70.293099 280.9728 
" clip-path="url(#pec8b21042d)" style="fill: none; stroke: #3d3d3d; stroke-width: 1.5; stroke-linecap: square"/>
   </g>
   <g id="line2d_21">
    <path d="M 340.909974 85.824 
L 346.494938 85.824 
L 346.494938 174.528 
L 340.909974 174.528 
" clip-path="url(#pec8b21042d)" style="fill: none; stroke: #333333; stroke-width: 1.5; stroke-linecap: square"/>
   </g>
   <g id="line2d_22">
    <path d="M 363.822838 174.528 
L 369.407801 174.528 
L 369.407801 263.232 
L 363.822838 263.232 
" clip-path="url(#pec8b21042d)" style="fill: none; stroke: #333333; stroke-width: 1.5; stroke-linecap: square"/>
   </g>
   <g id="line2d_23">
    <path d="M 386.735702 85.824 
L 392.320665 85.824 
L 392.320665 263.232 
L 386.735702 263.232 
" clip-path="url(#pec8b21042d)" style="fill: none; stroke: #333333; stroke-width: 1.5; stroke-linecap: square"/>
   </g>
   <g id="line2d_24">
    <path d="M 86.59583 50.3424 
L 86.59583 121.3056 
" clip-path="url(#pec8b21042d)" style="fill: none; stroke: #3d3d3d; stroke-width: 1.5"/>
   </g>
   <g id="line2d_25">
    <path d="M 71.431486 139.0464 
L 71.431486 210.0096 
" clip-path="url(#pec8b21042d)" style="fill: none; stroke: #3d3d3d; stroke-width: 1.5"/>
   </g>
   <g id="line2d_26">
    <path d="M 70.293099 227.7504 
L 70.293099 298.7136 
" clip-path="url(#pec8b21042d)" style="fill: none; stroke: #3d3d3d; stroke-width: 1.5"/>
   </g>
   <g id="patch_6">
    <path d="M 57.6 307.584 
L 57.6 41.472 
" style="fill: none; stroke: #000000; stroke-width: 0.8; stroke-linejoin: miter; stroke-linecap: square"/>
   </g>
   <g id="patch_7">
    <path d="M 414.72 307.584 
L 414.72 41.472 
" style="fill: none; stroke: #000000; stroke-width: 0.8; stroke-linejoin: miter; stroke-linecap: square"/>
   </g>
   <g id="patch_8">
    <path d="M 57.6 307.584 
L 414.72 307.584 
" style="fill: none; stroke: #000000; stroke-width: 0.8; stroke-linejoin: miter; stroke-linecap: square"/>
   </g>
   <g id="patch_9">
    <path d="M 57.6 41.472 
L 414.72 41.472 
" style="fill: none; stroke: #000000; stroke-width: 0.8; stroke-linejoin: miter; stroke-linecap: square"/>
   </g>
   <g id="PathCollection_1">
    <defs>
     <path id="C0_0_9e9dc99d30" d="M 0 2.5 
C 0.663008 2.5 1.29895 2.236584 1.767767 1.767767 
C 2.236584 1.29895 2.5 0.663008 2.5 -0 
C 2.5 -0.663008 2.236584 -1.29895 1.767767 -1.767767 
C 1.29895 -2.236584 0.663008 -2.5 0 -2.5 
C -0.663008 -2.5 -1.29895 -2.236584 -1.767767 -1.767767 
C -2.236584 -1.29895 -2.5 -0.663008 -2.5 0 
C -2.5 0.663008 -2.236584 1.29895 -1.767767 1.767767 
C -1.29895 2.236584 -0.663008 2.5 0 2.5 
z
"/>
    </defs>
    <g clip-path="url(#pec8b21042d)">
     <use xlink:href="#C0_0_9e9dc99d30" x="114.798431" y="88.039293" style="fill: #404040; fill-opacity: 0.7"/>
    </g>
    <g clip-path="url(#pec8b21042d)">
     <use xlink:href="#C0_0_9e9dc99d30" x="100.424499" y="78.167561" style="fill: #404040; fill-opacity: 0.7"/>
    </g>
    <g clip-path="url(#pec8b21042d)">
     <use xlink:href="#C0_0_9e9dc99d30" x="70.293099" y="92.816561" style="fill: #404040; fill-opacity: 0.7"/>
    </g>
    <g clip-path="url(#pec8b21042d)">
     <use xlink:href="#C0_0_9e9dc99d30" x="71.029285" y="79.044722" style="fill: #404040; fill-opacity: 0.7"/>
    </g>
    <g clip-path="url(#pec8b21042d)">
     <use xlink:href="#C0_0_9e9dc99d30" x="91.884383" y="81.229744" style="fill: #404040; fill-opacity: 0.7"/>
    </g>
    <g clip-path="url(#pec8b21042d)">
     <use xlink:href="#C0_0_9e9dc99d30" x="149.586829" y="80.029929" style="fill: #404040; fill-opacity: 0.7"/>
    </g>
    <g clip-path="url(#pec8b21042d)">
     <use xlink:href="#C0_0_9e9dc99d30" x="195.473515" y="79.015513" style="fill: #404040; fill-opacity: 0.7"/>
    </g>
    <g clip-path="url(#pec8b21042d)">
     <use xlink:href="#C0_0_9e9dc99d30" x="81.286522" y="81.361445" style="fill: #404040; fill-opacity: 0.7"/>
    </g>
    <g clip-path="url(#pec8b21042d)">
     <use xlink:href="#C0_0_9e9dc99d30" x="127.236739" y="81.530909" style="fill: #404040; fill-opacity: 0.7"/>
    </g>
    <g clip-path="url(#pec8b21042d)">
     <use xlink:href="#C0_0_9e9dc99d30" x="90.724143" y="88.073059" style="fill: #404040; fill-opacity: 0.7"/>
    </g>
    <g clip-path="url(#pec8b21042d)">
     <use xlink:href="#C0_0_9e9dc99d30" x="107.617351" y="93.809209" style="fill: #404040; fill-opacity: 0.7"/>
    </g>
    <g clip-path="url(#pec8b21042d)">
     <use xlink:href="#C0_0_9e9dc99d30" x="162.399248" y="78.196675" style="fill: #404040; fill-opacity: 0.7"/>
    </g>
    <g clip-path="url(#pec8b21042d)">
     <use xlink:href="#C0_0_9e9dc99d30" x="71.962821" y="77.769421" style="fill: #404040; fill-opacity: 0.7"/>
    </g>
    <g clip-path="url(#pec8b21042d)">
     <use xlink:href="#C0_0_9e9dc99d30" x="91.549559" y="83.794032" style="fill: #404040; fill-opacity: 0.7"/>
    </g>
    <g clip-path="url(#pec8b21042d)">
     <use xlink:href="#C0_0_9e9dc99d30" x="76.874491" y="88.96606" style="fill: #404040; fill-opacity: 0.7"/>
    </g>
    <g clip-path="url(#pec8b21042d)">
     <use xlink:href="#C0_0_9e9dc99d30" x="72.331578" y="84.944303" style="fill: #404040; fill-opacity: 0.7"/>
    </g>
    <g clip-path="url(#pec8b21042d)">
     <use xlink:href="#C0_0_9e9dc99d30" x="109.730235" y="88.988194" style="fill: #404040; fill-opacity: 0.7"/>
    </g>
    <g clip-path="url(#pec8b21042d)">
     <use xlink:href="#C0_0_9e9dc99d30" x="324.155083" y="81.881268" style="fill: #404040; fill-opacity: 0.7"/>
    </g>
    <g clip-path="url(#pec8b21042d)">
     <use xlink:href="#C0_0_9e9dc99d30" x="81.864441" y="87.526964" style="fill: #404040; fill-opacity: 0.7"/>
    </g>
    <g clip-path="url(#pec8b21042d)">
     <use xlink:href="#C0_0_9e9dc99d30" x="284.495081" y="88.979611" style="fill: #404040; fill-opacity: 0.7"/>
    </g>
    <g clip-path="url(#pec8b21042d)">
     <use xlink:href="#C0_0_9e9dc99d30" x="265.462548" y="83.510173" style="fill: #404040; fill-opacity: 0.7"/>
    </g>
    <g clip-path="url(#pec8b21042d)">
     <use xlink:href="#C0_0_9e9dc99d30" x="80.484135" y="80.80913" style="fill: #404040; fill-opacity: 0.7"/>
    </g>
    <g clip-path="url(#pec8b21042d)">
     <use xlink:href="#C0_0_9e9dc99d30" x="73.254667" y="78.442232" style="fill: #404040; fill-opacity: 0.7"/>
    </g>
    <g clip-path="url(#pec8b21042d)">
     <use xlink:href="#C0_0_9e9dc99d30" x="70.703486" y="86.109702" style="fill: #404040; fill-opacity: 0.7"/>
    </g>
    <g clip-path="url(#pec8b21042d)">
     <use xlink:href="#C0_0_9e9dc99d30" x="82.467518" y="82.26503" style="fill: #404040; fill-opacity: 0.7"/>
    </g>
    <g clip-path="url(#pec8b21042d)">
     <use xlink:href="#C0_0_9e9dc99d30" x="76.853988" y="88.418047" style="fill: #404040; fill-opacity: 0.7"/>
    </g>
    <g clip-path="url(#pec8b21042d)">
     <use xlink:href="#C0_0_9e9dc99d30" x="70.6977" y="79.850771" style="fill: #404040; fill-opacity: 0.7"/>
    </g>
    <g clip-path="url(#pec8b21042d)">
     <use xlink:href="#C0_0_9e9dc99d30" x="72.596029" y="83.216776" style="fill: #404040; fill-opacity: 0.7"/>
    </g>
    <g clip-path="url(#pec8b21042d)">
     <use xlink:href="#C0_0_9e9dc99d30" x="92.231512" y="79.799779" style="fill: #404040; fill-opacity: 0.7"/>
    </g>
    <g clip-path="url(#pec8b21042d)">
     <use xlink:href="#C0_0_9e9dc99d30" x="70.293099" y="82.328282" style="fill: #404040; fill-opacity: 0.7"/>
    </g>
   </g>
   <g id="PathCollection_2">
    <defs>
     <path id="C1_0_d259f37879" d="M 0 2.5 
C 0.663008 2.5 1.29895 2.236584 1.767767 1.767767 
C 2.236584 1.29895 2.5 0.663008 2.5 -0 
C 2.5 -0.663008 2.236584 -1.29895 1.767767 -1.767767 
C 1.29895 -2.236584 0.663008 -2.5 0 -2.5 
C -0.663008 -2.5 -1.29895 -2.236584 -1.767767 -1.767767 
C -2.236584 -1.29895 -2.5 -0.663008 -2.5 0 
C -2.5 0.663008 -2.236584 1.29895 -1.767767 1.767767 
C -1.29895 2.236584 -0.663008 2.5 0 2.5 
z
"/>
    </defs>
    <g clip-path="url(#pec8b21042d)">
     <use xlink:href="#C1_0_d259f37879" x="78.75004" y="182.728922" style="fill: #404040; fill-opacity: 0.7"/>
    </g>
    <g clip-path="url(#pec8b21042d)">
     <use xlink:href="#C1_0_d259f37879" x="70.293099" y="166.8574" style="fill: #404040; fill-opacity: 0.7"/>
    </g>
    <g clip-path="url(#pec8b21042d)">
     <use xlink:href="#C1_0_d259f37879" x="72.02611" y="169.767046" style="fill: #404040; fill-opacity: 0.7"/>
    </g>
    <g clip-path="url(#pec8b21042d)">
     <use xlink:href="#C1_0_d259f37879" x="71.074158" y="180.52445" style="fill: #404040; fill-opacity: 0.7"/>
    </g>
    <g clip-path="url(#pec8b21042d)">
     <use xlink:href="#C1_0_d259f37879" x="76.308632" y="176.590179" style="fill: #404040; fill-opacity: 0.7"/>
    </g>
    <g clip-path="url(#pec8b21042d)">
     <use xlink:href="#C1_0_d259f37879" x="71.418698" y="172.982733" style="fill: #404040; fill-opacity: 0.7"/>
    </g>
    <g clip-path="url(#pec8b21042d)">
     <use xlink:href="#C1_0_d259f37879" x="75.522444" y="181.721189" style="fill: #404040; fill-opacity: 0.7"/>
    </g>
    <g clip-path="url(#pec8b21042d)">
     <use xlink:href="#C1_0_d259f37879" x="73.726933" y="170.040272" style="fill: #404040; fill-opacity: 0.7"/>
    </g>
    <g clip-path="url(#pec8b21042d)">
     <use xlink:href="#C1_0_d259f37879" x="70.293099" y="178.733056" style="fill: #404040; fill-opacity: 0.7"/>
    </g>
    <g clip-path="url(#pec8b21042d)">
     <use xlink:href="#C1_0_d259f37879" x="72.003736" y="177.555056" style="fill: #404040; fill-opacity: 0.7"/>
    </g>
    <g clip-path="url(#pec8b21042d)">
     <use xlink:href="#C1_0_d259f37879" x="72.568175" y="174.888978" style="fill: #404040; fill-opacity: 0.7"/>
    </g>
    <g clip-path="url(#pec8b21042d)">
     <use xlink:href="#C1_0_d259f37879" x="70.293099" y="169.935571" style="fill: #404040; fill-opacity: 0.7"/>
    </g>
    <g clip-path="url(#pec8b21042d)">
     <use xlink:href="#C1_0_d259f37879" x="71.874058" y="179.219544" style="fill: #404040; fill-opacity: 0.7"/>
    </g>
    <g clip-path="url(#pec8b21042d)">
     <use xlink:href="#C1_0_d259f37879" x="70.293099" y="182.519263" style="fill: #404040; fill-opacity: 0.7"/>
    </g>
    <g clip-path="url(#pec8b21042d)">
     <use xlink:href="#C1_0_d259f37879" x="71.099825" y="165.887488" style="fill: #404040; fill-opacity: 0.7"/>
    </g>
    <g clip-path="url(#pec8b21042d)">
     <use xlink:href="#C1_0_d259f37879" x="70.293099" y="181.04553" style="fill: #404040; fill-opacity: 0.7"/>
    </g>
    <g clip-path="url(#pec8b21042d)">
     <use xlink:href="#C1_0_d259f37879" x="74.74306" y="172.627647" style="fill: #404040; fill-opacity: 0.7"/>
    </g>
    <g clip-path="url(#pec8b21042d)">
     <use xlink:href="#C1_0_d259f37879" x="70.293099" y="178.374528" style="fill: #404040; fill-opacity: 0.7"/>
    </g>
    <g clip-path="url(#pec8b21042d)">
     <use xlink:href="#C1_0_d259f37879" x="71.855075" y="171.319691" style="fill: #404040; fill-opacity: 0.7"/>
    </g>
    <g clip-path="url(#pec8b21042d)">
     <use xlink:href="#C1_0_d259f37879" x="70.293099" y="168.64239" style="fill: #404040; fill-opacity: 0.7"/>
    </g>
    <g clip-path="url(#pec8b21042d)">
     <use xlink:href="#C1_0_d259f37879" x="70.293099" y="169.575106" style="fill: #404040; fill-opacity: 0.7"/>
    </g>
    <g clip-path="url(#pec8b21042d)">
     <use xlink:href="#C1_0_d259f37879" x="70.293099" y="172.354138" style="fill: #404040; fill-opacity: 0.7"/>
    </g>
    <g clip-path="url(#pec8b21042d)">
     <use xlink:href="#C1_0_d259f37879" x="71.444274" y="177.424469" style="fill: #404040; fill-opacity: 0.7"/>
    </g>
    <g clip-path="url(#pec8b21042d)">
     <use xlink:href="#C1_0_d259f37879" x="71.556446" y="166.053497" style="fill: #404040; fill-opacity: 0.7"/>
    </g>
    <g clip-path="url(#pec8b21042d)">
     <use xlink:href="#C1_0_d259f37879" x="70.293099" y="169.884927" style="fill: #404040; fill-opacity: 0.7"/>
    </g>
    <g clip-path="url(#pec8b21042d)">
     <use xlink:href="#C1_0_d259f37879" x="70.293099" y="182.508388" style="fill: #404040; fill-opacity: 0.7"/>
    </g>
    <g clip-path="url(#pec8b21042d)">
     <use xlink:href="#C1_0_d259f37879" x="71.939094" y="177.476352" style="fill: #404040; fill-opacity: 0.7"/>
    </g>
    <g clip-path="url(#pec8b21042d)">
     <use xlink:href="#C1_0_d259f37879" x="70.293099" y="178.321745" style="fill: #404040; fill-opacity: 0.7"/>
    </g>
    <g clip-path="url(#pec8b21042d)">
     <use xlink:href="#C1_0_d259f37879" x="72.441016" y="179.216242" style="fill: #404040; fill-opacity: 0.7"/>
    </g>
    <g clip-path="url(#pec8b21042d)">
     <use xlink:href="#C1_0_d259f37879" x="78.195435" y="182.522678" style="fill: #404040; fill-opacity: 0.7"/>
    </g>
   </g>
   <g id="PathCollection_3">
    <defs>
     <path id="C2_0_747fa8c1e6" d="M 0 2.5 
C 0.663008 2.5 1.29895 2.236584 1.767767 1.767767 
C 2.236584 1.29895 2.5 0.663008 2.5 -0 
C 2.5 -0.663008 2.236584 -1.29895 1.767767 -1.767767 
C 1.29895 -2.236584 0.663008 -2.5 0 -2.5 
C -0.663008 -2.5 -1.29895 -2.236584 -1.767767 -1.767767 
C -2.236584 -1.29895 -2.5 -0.663008 -2.5 0 
C -2.5 0.663008 -2.236584 1.29895 -1.767767 1.767767 
C -1.29895 2.236584 -0.663008 2.5 0 2.5 
z
"/>
    </defs>
    <g clip-path="url(#pec8b21042d)">
     <use xlink:href="#C2_0_747fa8c1e6" x="70.293099" y="271.538144" style="fill: #404040; fill-opacity: 0.7"/>
    </g>
    <g clip-path="url(#pec8b21042d)">
     <use xlink:href="#C2_0_747fa8c1e6" x="70.293099" y="269.2453" style="fill: #404040; fill-opacity: 0.7"/>
    </g>
    <g clip-path="url(#pec8b21042d)">
     <use xlink:href="#C2_0_747fa8c1e6" x="70.293099" y="258.540495" style="fill: #404040; fill-opacity: 0.7"/>
    </g>
    <g clip-path="url(#pec8b21042d)">
     <use xlink:href="#C2_0_747fa8c1e6" x="70.293099" y="264.627036" style="fill: #404040; fill-opacity: 0.7"/>
    </g>
    <g clip-path="url(#pec8b21042d)">
     <use xlink:href="#C2_0_747fa8c1e6" x="70.293099" y="261.304387" style="fill: #404040; fill-opacity: 0.7"/>
    </g>
    <g clip-path="url(#pec8b21042d)">
     <use xlink:href="#C2_0_747fa8c1e6" x="70.293099" y="260.199912" style="fill: #404040; fill-opacity: 0.7"/>
    </g>
    <g clip-path="url(#pec8b21042d)">
     <use xlink:href="#C2_0_747fa8c1e6" x="70.293099" y="268.639359" style="fill: #404040; fill-opacity: 0.7"/>
    </g>
    <g clip-path="url(#pec8b21042d)">
     <use xlink:href="#C2_0_747fa8c1e6" x="70.293099" y="261.594124" style="fill: #404040; fill-opacity: 0.7"/>
    </g>
    <g clip-path="url(#pec8b21042d)">
     <use xlink:href="#C2_0_747fa8c1e6" x="70.293099" y="260.910875" style="fill: #404040; fill-opacity: 0.7"/>
    </g>
    <g clip-path="url(#pec8b21042d)">
     <use xlink:href="#C2_0_747fa8c1e6" x="70.293099" y="270.20522" style="fill: #404040; fill-opacity: 0.7"/>
    </g>
    <g clip-path="url(#pec8b21042d)">
     <use xlink:href="#C2_0_747fa8c1e6" x="70.293099" y="254.606625" style="fill: #404040; fill-opacity: 0.7"/>
    </g>
    <g clip-path="url(#pec8b21042d)">
     <use xlink:href="#C2_0_747fa8c1e6" x="70.293099" y="259.036671" style="fill: #404040; fill-opacity: 0.7"/>
    </g>
    <g clip-path="url(#pec8b21042d)">
     <use xlink:href="#C2_0_747fa8c1e6" x="71.821388" y="270.632671" style="fill: #404040; fill-opacity: 0.7"/>
    </g>
    <g clip-path="url(#pec8b21042d)">
     <use xlink:href="#C2_0_747fa8c1e6" x="70.293099" y="266.651869" style="fill: #404040; fill-opacity: 0.7"/>
    </g>
    <g clip-path="url(#pec8b21042d)">
     <use xlink:href="#C2_0_747fa8c1e6" x="70.293099" y="267.510051" style="fill: #404040; fill-opacity: 0.7"/>
    </g>
    <g clip-path="url(#pec8b21042d)">
     <use xlink:href="#C2_0_747fa8c1e6" x="70.293099" y="256.967492" style="fill: #404040; fill-opacity: 0.7"/>
    </g>
    <g clip-path="url(#pec8b21042d)">
     <use xlink:href="#C2_0_747fa8c1e6" x="70.293099" y="254.41969" style="fill: #404040; fill-opacity: 0.7"/>
    </g>
    <g clip-path="url(#pec8b21042d)">
     <use xlink:href="#C2_0_747fa8c1e6" x="70.293099" y="262.688057" style="fill: #404040; fill-opacity: 0.7"/>
    </g>
    <g clip-path="url(#pec8b21042d)">
     <use xlink:href="#C2_0_747fa8c1e6" x="70.293099" y="256.519541" style="fill: #404040; fill-opacity: 0.7"/>
    </g>
    <g clip-path="url(#pec8b21042d)">
     <use xlink:href="#C2_0_747fa8c1e6" x="70.293099" y="261.691388" style="fill: #404040; fill-opacity: 0.7"/>
    </g>
    <g clip-path="url(#pec8b21042d)">
     <use xlink:href="#C2_0_747fa8c1e6" x="70.743695" y="264.219354" style="fill: #404040; fill-opacity: 0.7"/>
    </g>
    <g clip-path="url(#pec8b21042d)">
     <use xlink:href="#C2_0_747fa8c1e6" x="70.293099" y="270.494756" style="fill: #404040; fill-opacity: 0.7"/>
    </g>
    <g clip-path="url(#pec8b21042d)">
     <use xlink:href="#C2_0_747fa8c1e6" x="71.405005" y="270.972932" style="fill: #404040; fill-opacity: 0.7"/>
    </g>
    <g clip-path="url(#pec8b21042d)">
     <use xlink:href="#C2_0_747fa8c1e6" x="70.293099" y="267.464861" style="fill: #404040; fill-opacity: 0.7"/>
    </g>
    <g clip-path="url(#pec8b21042d)">
     <use xlink:href="#C2_0_747fa8c1e6" x="70.293099" y="267.175699" style="fill: #404040; fill-opacity: 0.7"/>
    </g>
    <g clip-path="url(#pec8b21042d)">
     <use xlink:href="#C2_0_747fa8c1e6" x="70.293099" y="256.110551" style="fill: #404040; fill-opacity: 0.7"/>
    </g>
    <g clip-path="url(#pec8b21042d)">
     <use xlink:href="#C2_0_747fa8c1e6" x="70.293099" y="262.514976" style="fill: #404040; fill-opacity: 0.7"/>
    </g>
    <g clip-path="url(#pec8b21042d)">
     <use xlink:href="#C2_0_747fa8c1e6" x="70.293099" y="257.364487" style="fill: #404040; fill-opacity: 0.7"/>
    </g>
    <g clip-path="url(#pec8b21042d)">
     <use xlink:href="#C2_0_747fa8c1e6" x="70.293099" y="263.400094" style="fill: #404040; fill-opacity: 0.7"/>
    </g>
    <g clip-path="url(#pec8b21042d)">
     <use xlink:href="#C2_0_747fa8c1e6" x="70.293099" y="267.126476" style="fill: #404040; fill-opacity: 0.7"/>
    </g>
   </g>
   <g id="text_12">
    <!-- **** -->
    <g transform="translate(349.574625 120.176) rotate(-270) scale(0.1 -0.1)">
     <defs>
      <path id="DejaVuSans-2a" d="M 3009 3897 
L 1888 3291 
L 3009 2681 
L 2828 2375 
L 1778 3009 
L 1778 1831 
L 1422 1831 
L 1422 3009 
L 372 2375 
L 191 2681 
L 1313 3291 
L 191 3897 
L 372 4206 
L 1422 3572 
L 1422 4750 
L 1778 4750 
L 1778 3572 
L 2828 4206 
L 3009 3897 
z
" transform="scale(0.015625)"/>
     </defs>
     <use xlink:href="#DejaVuSans-2a"/>
     <use xlink:href="#DejaVuSans-2a" x="50"/>
     <use xlink:href="#DejaVuSans-2a" x="100"/>
     <use xlink:href="#DejaVuSans-2a" x="150"/>
    </g>
   </g>
   <g id="text_13">
    <!-- **** -->
    <g transform="translate(372.487489 208.88) rotate(-270) scale(0.1 -0.1)">
     <use xlink:href="#DejaVuSans-2a"/>
     <use xlink:href="#DejaVuSans-2a" x="50"/>
     <use xlink:href="#DejaVuSans-2a" x="100"/>
     <use xlink:href="#DejaVuSans-2a" x="150"/>
    </g>
   </g>
   <g id="text_14">
    <!-- **** -->
    <g transform="translate(395.400353 164.528) rotate(-270) scale(0.1 -0.1)">
     <use xlink:href="#DejaVuSans-2a"/>
     <use xlink:href="#DejaVuSans-2a" x="50"/>
     <use xlink:href="#DejaVuSans-2a" x="100"/>
     <use xlink:href="#DejaVuSans-2a" x="150"/>
    </g>
   </g>
  </g>
 </g>
 <defs>
  <clipPath id="pec8b21042d">
   <rect x="57.6" y="41.472" width="357.12" height="266.112"/>
  </clipPath>
 </defs>
</svg>
